<svg width="109" height="109" viewBox="0 0 109 109" fill="none" xmlns="http://www.w3.org/2000/svg">
<path d="M77.3835 85.7404C81.871 82.4533 85.5976 78.238 88.3097 73.3814C91.0219 68.5249 92.656 63.141 93.1008 57.5962C93.5455 52.0515 92.7905 46.476 90.8872 41.2492C88.9838 36.0224 85.9767 31.267 82.0707 27.3066C78.1646 23.3462 73.4511 20.2738 68.2511 18.2985C63.051 16.3232 57.4865 15.4914 51.9361 15.8596C46.3857 16.2278 40.9798 17.7874 36.0863 20.4323C31.1928 23.0772 26.9265 26.7453 23.5777 31.1869L24.5054 31.8863C27.7537 27.5779 31.892 24.0199 36.6387 21.4543C41.3854 18.8888 46.6292 17.3759 52.013 17.0188C57.3969 16.6616 62.7945 17.4685 67.8385 19.3846C72.8825 21.3006 77.4546 24.2808 81.2435 28.1224C85.0324 31.964 87.9493 36.5767 89.7955 41.6467C91.6418 46.7167 92.3741 52.1249 91.9427 57.5034C91.5113 62.8818 89.9262 68.1041 87.2954 72.815C84.6646 77.5259 81.0498 81.6147 76.697 84.8032L77.3835 85.7404Z" fill="#3B82F6"/>
<circle cx="55.2979" cy="53.2539" r="29.5" fill="white" stroke="black"/>
<path d="M30.5532 38.131C32.8432 34.3841 35.9542 31.2061 39.6515 28.8369C43.3488 26.4677 47.5358 24.969 51.8968 24.454C56.2578 23.939 60.6787 24.4211 64.8262 25.8639C68.9737 27.3068 72.7393 29.6726 75.8391 32.783C78.9389 35.8934 81.2918 39.6672 82.7204 43.8196C84.1489 47.972 84.6158 52.3946 84.0859 56.7538C83.5559 61.113 82.0429 65.2949 79.661 68.984C77.2791 72.6732 74.0905 75.7732 70.3358 78.0503L55.2979 53.2539L30.5532 38.131Z" fill="#3B82F6"/>
<rect x="54.2979" y="25.2539" width="2" height="3" fill="black"/>
<rect x="68.7979" y="28.2539" width="2" height="3" transform="rotate(30 68.7979 28.2539)" fill="black"/>
<rect x="40.2979" y="29.2539" width="2" height="3" transform="rotate(-30 40.2979 29.2539)" fill="black"/>
<rect x="79.8955" y="39.2539" width="2" height="3" transform="rotate(60 79.8955 39.2539)" fill="black"/>
<rect x="31.2979" y="39.9863" width="2" height="3" transform="rotate(-60 31.2979 39.9863)" fill="black"/>
<rect x="45.2979" y="47.9863" width="2" height="10" transform="rotate(-60 45.2979 47.9863)" fill="black"/>
<rect x="54.2979" y="78.2539" width="2" height="3" fill="black"/>
<rect x="27.2979" y="54.2539" width="2" height="3" transform="rotate(-90 27.2979 54.2539)" fill="black"/>
<rect x="80.3008" y="54.2578" width="2" height="3" transform="rotate(-90 80.3008 54.2578)" fill="black"/>
<rect x="80.8955" y="64.7539" width="2" height="3" transform="rotate(120 80.8955 64.7539)" fill="black"/>
<rect x="62.2188" y="62.4551" width="2" height="10" transform="rotate(150 62.2188 62.4551)" fill="black"/>
<rect x="42.0303" y="77.8516" width="2" height="3" transform="rotate(-150 42.0303 77.8516)" fill="black"/>
<rect x="70.5303" y="76.8516" width="2" height="3" transform="rotate(150 70.5303 76.8516)" fill="black"/>
<rect x="31.2979" y="68.4863" width="2" height="3" transform="rotate(-120 31.2979 68.4863)" fill="black"/>
<circle cx="55.2979" cy="53.2539" r="2" fill="#0000FF"/>
<path d="M17.0961 31.9812V39.2539H16.6523V32.4499H16.6096L14.9761 33.533V33.0572L16.5954 31.9812H17.0961ZM21.5768 39.3533C21.0915 39.3533 20.6748 39.2042 20.3268 38.9059C19.9788 38.6076 19.7113 38.1803 19.5242 37.6239C19.3396 37.0652 19.2472 36.3964 19.2472 35.6175C19.2472 34.841 19.3408 34.1734 19.5278 33.6147C19.7148 33.056 19.9811 32.6275 20.3268 32.3292C20.6748 32.0309 21.0915 31.8817 21.5768 31.8817C22.0621 31.8817 22.4776 32.0309 22.8232 32.3292C23.1713 32.6275 23.4388 33.056 23.6258 33.6147C23.8128 34.1734 23.9063 34.841 23.9063 35.6175C23.9063 36.3964 23.8128 37.0652 23.6258 37.6239C23.4411 38.1803 23.1748 38.6076 22.8268 38.9059C22.4788 39.2042 22.0621 39.3533 21.5768 39.3533ZM21.5768 38.9414C22.1663 38.9414 22.6291 38.649 22.9653 38.0643C23.3015 37.4772 23.4695 36.6616 23.4695 35.6175C23.4695 34.9215 23.3926 34.3249 23.2387 33.8278C23.0872 33.3306 22.8706 32.9506 22.5889 32.6879C22.3071 32.4227 21.9698 32.2901 21.5768 32.2901C20.9873 32.2901 20.5245 32.5837 20.1883 33.1708C19.8521 33.7579 19.684 34.5735 19.684 35.6175C19.684 36.3136 19.7598 36.9102 19.9113 37.4073C20.0628 37.9021 20.2794 38.2821 20.5612 38.5472C20.8453 38.81 21.1838 38.9414 21.5768 38.9414Z" fill="black"/>
<path d="M73.1423 91.3533C72.7541 91.3533 72.4072 91.2717 72.1018 91.1083C71.7988 90.9426 71.5585 90.7153 71.3809 90.4265C71.2058 90.1377 71.1158 89.8074 71.1111 89.4357H71.5479C71.5573 89.8761 71.71 90.2371 72.0059 90.5188C72.3019 90.8005 72.6807 90.9414 73.1423 90.9414C73.4974 90.9414 73.8099 90.8562 74.0798 90.6857C74.3521 90.5129 74.5651 90.2785 74.719 89.9826C74.8729 89.6867 74.9487 89.3529 74.9463 88.9812C74.9463 88.5882 74.8634 88.2449 74.6977 87.9513C74.532 87.6578 74.3106 87.4305 74.0336 87.2695C73.7567 87.1085 73.4501 87.0269 73.1139 87.0245C72.8488 87.0245 72.6002 87.073 72.3682 87.1701C72.1362 87.2648 71.9385 87.3867 71.7751 87.5359L71.2744 87.4648L71.7041 83.9812H75.1132V84.3931H72.0841L71.7503 87.1168H71.7858C71.9562 86.9653 72.1586 86.8434 72.393 86.7511C72.6298 86.6564 72.8866 86.609 73.1636 86.609C73.5708 86.609 73.9425 86.7085 74.2787 86.9073C74.6172 87.1062 74.8859 87.3832 75.0848 87.7383C75.286 88.0934 75.3854 88.5065 75.3831 88.9776C75.3807 89.4322 75.2836 89.8382 75.0919 90.1957C74.9001 90.5531 74.635 90.8361 74.2964 91.0444C73.9603 91.2504 73.5756 91.3533 73.1423 91.3533Z" fill="black"/>
<path d="M81.7979 84.2539L76.2979 85.7539L80.2979 82.7539L81.7979 84.2539Z" fill="#3B82F6" stroke="#3B82F6"/>
</svg>
