<svg width="109" height="109" viewBox="0 0 109 109" fill="none" xmlns="http://www.w3.org/2000/svg">
<path d="M92.6437 47.8171C91.5891 41.7975 89.1248 36.113 85.4523 31.2283C81.7798 26.3436 77.0034 22.3975 71.5136 19.7125C66.0237 17.0275 59.9764 15.6799 53.8659 15.7798C47.7555 15.8798 41.7555 17.4245 36.3564 20.2877L36.9007 21.314C42.1378 18.5368 47.9578 17.0384 53.885 16.9414C59.8121 16.8445 65.678 18.1516 71.0031 20.7561C76.3283 23.3605 80.9614 27.1883 84.5237 31.9265C88.086 36.6646 90.4764 42.1786 91.4994 48.0175L92.6437 47.8171Z" fill="#3B82F6"/>
<circle cx="55.2979" cy="54.2539" r="29.5" fill="white" stroke="black"/>
<path d="M40.8408 29.1144C45.2426 26.5831 50.232 25.2518 55.3098 25.2539C60.3876 25.256 65.3759 26.5913 69.7756 29.1264C74.1754 31.6614 77.8324 35.3072 80.3809 39.6992C82.9294 44.0912 84.28 49.0753 84.2977 54.1531L55.2979 54.2539L40.8408 29.1144Z" fill="#3B82F6"/>
<rect x="54.2979" y="26.2539" width="2" height="3" fill="black"/>
<rect x="68.7979" y="29.2539" width="2" height="3" transform="rotate(30 68.7979 29.2539)" fill="black"/>
<rect x="40.2979" y="30.2539" width="2" height="3" transform="rotate(-30 40.2979 30.2539)" fill="black"/>
<rect x="79.8955" y="40.2539" width="2" height="3" transform="rotate(60 79.8955 40.2539)" fill="black"/>
<rect x="31.2979" y="40.9863" width="2" height="3" transform="rotate(-60 31.2979 40.9863)" fill="black"/>
<rect x="49" y="45" width="2" height="10" transform="rotate(-30 49 45)" fill="black"/>
<rect x="54.2979" y="79.2539" width="2" height="3" fill="black"/>
<rect x="27.2979" y="55.2539" width="2" height="3" transform="rotate(-90 27.2979 55.2539)" fill="black"/>
<rect x="80.3008" y="55.2578" width="2" height="3" transform="rotate(-90 80.3008 55.2578)" fill="black"/>
<rect x="80.8955" y="65.7539" width="2" height="3" transform="rotate(120 80.8955 65.7539)" fill="black"/>
<rect x="56" y="55" width="2" height="10" transform="rotate(-90 56 55)" fill="black"/>
<rect x="42.0303" y="78.8516" width="2" height="3" transform="rotate(-150 42.0303 78.8516)" fill="black"/>
<rect x="70.5303" y="77.8516" width="2" height="3" transform="rotate(150 70.5303 77.8516)" fill="black"/>
<rect x="31.2979" y="69.4863" width="2" height="3" transform="rotate(-120 31.2979 69.4863)" fill="black"/>
<circle cx="55.2979" cy="54.2539" r="2" fill="#0000FF"/>
<path d="M29.7983 18.7273V26H29.3544V19.196H29.3118L27.6783 20.2791V19.8033L29.2976 18.7273H29.7983ZM34.0659 18.7273V26H33.622V19.196H33.5794L31.9458 20.2791V19.8033L33.5652 18.7273H34.0659Z" fill="black"/>
<path d="M93.1357 58.0994C92.7048 58.0994 92.3201 58.0178 91.9815 57.8544C91.643 57.6887 91.3743 57.4626 91.1754 57.1761C90.9789 56.8873 90.8771 56.5559 90.87 56.1818H91.321C91.3281 56.4777 91.4122 56.7393 91.5732 56.9666C91.7341 57.1915 91.9496 57.3679 92.2195 57.4957C92.4917 57.6236 92.7947 57.6875 93.1286 57.6875C93.4908 57.6875 93.808 57.6165 94.0803 57.4744C94.3549 57.3324 94.5691 57.1406 94.723 56.8991C94.8769 56.6553 94.9538 56.383 94.9538 56.0824C94.9538 55.7604 94.8698 55.4787 94.7017 55.2372C94.5336 54.9934 94.2992 54.804 93.9986 54.669C93.6979 54.5317 93.3487 54.4631 92.951 54.4631H92.6811V54.0511H92.951C93.2895 54.0511 93.5926 53.9896 93.8601 53.8665C94.1276 53.741 94.3383 53.5646 94.4922 53.3374C94.6484 53.1101 94.7266 52.8414 94.7266 52.5312C94.7266 52.2401 94.6591 51.982 94.5241 51.7571C94.3892 51.5322 94.2022 51.3558 93.9631 51.228C93.7263 51.1001 93.4482 51.0362 93.1286 51.0362C92.8208 51.0362 92.5414 51.099 92.2905 51.2244C92.0419 51.3499 91.8442 51.5263 91.6974 51.7536C91.5507 51.9808 91.4761 52.2448 91.4737 52.5455H91.0369C91.0417 52.169 91.1364 51.8364 91.321 51.5476C91.508 51.2588 91.7578 51.0339 92.0703 50.8729C92.3852 50.7095 92.7403 50.6278 93.1357 50.6278C93.5381 50.6278 93.8909 50.7119 94.1939 50.88C94.4993 51.0481 94.736 51.2753 94.9041 51.5618C95.0746 51.8482 95.1598 52.1667 95.1598 52.517C95.1598 52.9384 95.0426 53.2995 94.8082 53.6001C94.5762 53.8984 94.2614 54.1056 93.8636 54.2216V54.2607C94.3348 54.3648 94.7076 54.5791 94.9822 54.9034C95.2569 55.2277 95.3942 55.6207 95.3942 56.0824C95.3942 56.4612 95.2971 56.8033 95.103 57.1087C94.9089 57.4141 94.6413 57.6555 94.3004 57.8331C93.9619 58.0107 93.5736 58.0994 93.1357 58.0994Z" fill="black"/>
<path d="M94 43.5L92 48.5L91.5 44.5L94 43.5Z" fill="#3B82F6" stroke="#3B82F6"/>
</svg>
