<svg width="30" height="30" viewBox="0 0 30 30" fill="none" xmlns="http://www.w3.org/2000/svg">
<circle cx="15" cy="15" r="15" fill="#F6AF03"/>
<path d="M18.5301 10.7034H20.1988C20.4142 10.7035 20.6205 10.6106 20.7712 10.4457C20.9219 10.2808 21.0043 10.0579 20.9998 9.82712V6.96572C21.0013 6.51822 20.6817 6.14459 20.2656 6.1073C20.2656 6.1073 19.0807 6 17.6289 6C14.0578 6 12.0886 8.27124 12.0886 12.3845V15.5499H8.80119C8.58737 15.545 8.38094 15.6339 8.22972 15.7959C8.0785 15.958 7.99558 16.1792 8.00018 16.4083V19.0194C7.99558 19.2485 8.0785 19.4697 8.22972 19.6318C8.38094 19.7939 8.58737 19.8827 8.80119 19.8778H12.0386V30H16.9114V19.8778H19.8484C20.2517 19.8734 20.5918 19.5545 20.6494 19.1267L20.9498 16.5156C20.9804 16.2685 20.907 16.0196 20.7495 15.8361C20.5967 15.653 20.378 15.5488 20.1488 15.5499H16.9114V12.4918C16.911 11.5247 17.628 10.7324 18.5301 10.7034Z" fill="white"/>
</svg>
