<svg width="30" height="30" viewBox="0 0 30 30" fill="none" xmlns="http://www.w3.org/2000/svg">
<circle cx="15" cy="15" r="15" fill="#F6AF03"/>
<path d="M15.5499 14.3901V16.8901H19.1099C18.664 18.4734 17.1939 19.5471 15.5499 19.4901C13.7954 19.4994 12.2449 18.3503 11.7435 16.6688C11.2422 14.9874 11.9101 13.1767 13.3832 12.2237C14.8564 11.2706 16.7817 11.4035 18.1099 12.5501L19.9499 10.7101C17.7902 8.7384 14.584 8.44018 12.0976 9.97968C9.6113 11.5192 8.44919 14.5222 9.25151 17.3344C10.0538 20.1465 12.6256 22.0843 15.5499 22.0801C21.0399 22.0801 22.2499 16.9501 21.7099 14.4001L15.5499 14.3901Z" fill="white"/>
</svg>
