<svg width="790" height="259" viewBox="0 0 790 259" fill="none" xmlns="http://www.w3.org/2000/svg">
<mask id="mask0_1551_2835" style="mask-type:luminance" maskUnits="userSpaceOnUse" x="0" y="0" width="197" height="201">
<path d="M0 0H196.045V200.676H0V0Z" fill="white"/>
</mask>
<g mask="url(#mask0_1551_2835)">
<path d="M194.387 91.4115H102.383V118.697H167.637C164.404 156.89 132.564 173.284 102.493 173.284C101.306 173.288 100.119 173.265 98.9323 173.212C97.7475 173.156 96.5626 173.074 95.382 172.963C94.1993 172.85 93.0208 172.708 91.8466 172.537C90.6723 172.365 89.5024 172.165 88.3366 171.938C87.173 171.708 86.0137 171.45 84.8629 171.163C83.7099 170.878 82.5655 170.563 81.4295 170.219C80.2936 169.876 79.1662 169.506 78.0473 169.106C76.9305 168.706 75.8222 168.281 74.7267 167.826C73.629 167.373 72.5441 166.892 71.472 166.383C70.3999 165.875 69.3384 165.341 68.2939 164.779C67.2473 164.22 66.2156 163.633 65.1988 163.022C64.1799 162.41 63.1801 161.774 62.1931 161.112C61.2081 160.451 60.2403 159.766 59.2894 159.055C58.3364 158.347 57.4047 157.613 56.4878 156.858C55.5731 156.103 54.6776 155.324 53.8012 154.524C52.9247 153.724 52.0696 152.901 51.2336 152.059C50.3976 151.216 49.5829 150.353 48.7915 149.47C47.9981 148.587 47.228 147.685 46.4792 146.764C45.7326 145.843 45.0072 144.903 44.3052 143.945C43.6054 142.988 42.9268 142.014 42.2759 141.023C41.6228 140.031 40.9931 139.025 40.3911 138.004C39.7891 136.981 39.2105 135.945 38.6596 134.894C38.1086 133.843 37.5832 132.78 37.0854 131.703C36.5877 130.625 36.1154 129.538 35.6708 128.438C35.2262 127.336 34.8093 126.226 34.42 125.105C34.0307 123.984 33.6691 122.854 33.3373 121.716C33.0033 120.578 32.6991 119.431 32.4226 118.276C32.146 117.123 31.8993 115.962 31.6802 114.796C31.4632 113.63 31.2717 112.458 31.1122 111.284C30.9526 110.108 30.8208 108.929 30.7186 107.746C30.6165 106.566 30.5442 105.381 30.5017 104.196C30.4591 103.009 30.4464 101.824 30.4613 100.637C30.4613 59.3308 62.4568 27.5288 102.581 27.5288C133.534 27.5288 151.773 47.2482 151.773 47.2482L170.879 27.4608C170.879 27.4608 146.333 0.162109 101.581 0.162109C44.5924 0.162109 0.507812 48.2331 0.507812 100.152C0.507812 151.029 41.9759 200.642 103.021 200.642C156.718 200.642 196.025 163.875 196.025 109.51C196.025 98.0378 194.357 91.4115 194.357 91.4115H194.387Z" fill="#4885ED"/>
</g>
<path d="M269.762 71.647C232.003 71.647 204.947 101.152 204.947 135.547C204.947 170.463 231.182 200.51 270.202 200.51C305.52 200.51 334.451 173.533 334.451 136.295C334.451 93.6957 300.794 71.6406 269.762 71.6406V71.647ZM270.13 96.9567C288.692 96.9567 306.284 111.962 306.284 136.134C306.284 159.784 288.764 175.222 270.04 175.222C249.464 175.222 233.297 158.755 233.297 135.942C233.297 113.615 249.317 96.9567 270.187 96.9567H270.13Z" fill="#DB3236"/>
<path d="M410.716 71.647C372.958 71.647 345.899 101.152 345.899 135.547C345.899 170.463 372.134 200.51 411.156 200.51C446.472 200.51 475.405 173.533 475.405 136.295C475.405 93.6957 441.748 71.6406 410.716 71.6406V71.647ZM411.082 96.9567C429.646 96.9567 447.238 111.962 447.238 136.134C447.238 159.784 429.718 175.222 410.995 175.222C390.418 175.222 374.251 158.755 374.251 135.942C374.251 113.615 390.271 96.9567 411.141 96.9567H411.082Z" fill="#F4C20D"/>
<mask id="mask1_1551_2835" style="mask-type:luminance" maskUnits="userSpaceOnUse" x="486" y="71" width="126" height="188">
<path d="M486.846 71.6123H611.007V258.534H486.846V71.6123Z" fill="white"/>
</mask>
<g mask="url(#mask1_1551_2835)">
<path d="M548.965 71.7207C514.308 71.7207 487.075 102.053 487.075 136.103C487.075 174.885 518.652 200.605 548.363 200.605C566.733 200.605 576.508 193.311 583.636 184.946V197.652C583.636 219.884 570.128 233.2 549.743 233.2C530.049 233.2 520.173 218.563 516.676 210.263L491.895 220.546C500.685 239.129 518.379 258.495 549.95 258.495C584.487 258.495 610.663 236.808 610.663 191.313V75.5901H583.738V86.5049C575.434 77.545 564.059 71.7207 548.98 71.7207H548.965ZM551.464 96.9857C568.452 96.9857 585.9 111.485 585.9 136.244C585.9 161.413 568.482 175.28 551.088 175.28C532.615 175.28 515.425 160.296 515.425 136.478C515.425 111.74 533.283 96.9772 551.464 96.9772V96.9857Z" fill="#4885ED"/>
</g>
<path d="M731.003 71.5654C698.316 71.5654 670.868 97.5665 670.868 135.905C670.868 176.493 701.462 200.56 734.068 200.56C761.345 200.56 778.159 185.651 788.078 172.283L765.791 157.463C760.007 166.423 750.337 175.2 734.206 175.2C716.084 175.2 707.752 165.285 702.585 155.663L789.027 119.819L784.617 109.317C776.27 88.7513 756.789 71.5654 731.009 71.5654H731.003ZM732.128 96.3476C743.906 96.3476 752.379 102.604 755.981 110.111L698.25 134.223C695.752 115.552 713.462 96.3476 732.054 96.3476H732.128Z" fill="#DB3236"/>
<path d="M629.592 196.742H657.988V6.83008H629.592V196.742Z" fill="#3CBA54"/>
</svg>
