<svg width="71" height="72" viewBox="0 0 71 72" fill="none" xmlns="http://www.w3.org/2000/svg">
<path d="M65.7404 44.7395L56.2676 38.5415L59.9148 31.855C60.7945 30.1854 61.2554 28.3271 61.2578 26.4399V15.84C61.2651 12.8595 60.4019 9.94174 58.7741 7.44501C57.1463 4.94829 54.8248 2.98128 52.0947 1.78552C49.3646 0.589762 46.3447 0.217311 43.4059 0.713902C40.4671 1.21049 37.7373 2.55451 35.5516 4.58091L38.7534 8.03722C40.2678 6.63696 42.158 5.70903 44.1921 5.36722C46.2261 5.02541 48.3158 5.28456 50.2047 6.11291C52.0937 6.94126 53.6999 8.3028 54.8264 10.0306C55.9529 11.7584 56.5508 13.7774 56.5467 15.84V26.4399C56.5462 27.5388 56.283 28.6216 55.7789 29.5981L50.0497 40.102L63.1609 48.6812C64.0264 49.2476 64.7366 50.0213 65.227 50.9321C65.7174 51.8428 65.9724 52.8616 65.9689 53.8959V61.773H55.3689V66.4841H70.68V53.8958C70.6847 52.0789 70.2353 50.2896 69.3727 48.6905C68.51 47.0915 67.2614 45.7333 65.7404 44.7395Z" fill="black"/>
<path d="M44.5405 49.4506L35.0678 43.2526L38.715 36.5661C39.5946 34.8965 40.0555 33.0382 40.0579 31.151V20.551C40.0549 16.4881 38.4403 12.5922 35.5685 9.71813C32.6967 6.84406 28.8021 5.22649 24.7391 5.22029C16.3008 5.22029 9.43586 12.0977 9.43586 20.551V31.151C9.42687 33.0373 9.8827 34.8968 10.7631 36.5651L14.4301 43.2878L5.01245 49.4506C3.49314 50.4428 2.24565 51.7987 1.38318 53.3953C0.520714 54.9918 0.0705738 56.7785 0.0736107 58.5931L0 71.1952H49.4801V58.6069C49.4848 56.79 49.0355 55.0007 48.1728 53.4016C47.3101 51.8025 46.0616 50.4444 44.5405 49.4506ZM44.769 66.4841H4.73847L4.78411 58.6069C4.78055 57.5725 5.03555 56.5537 5.52594 55.643C6.01633 54.7323 6.72656 53.9586 7.59206 53.3922L20.6479 44.8491L14.8988 34.3092C14.4004 33.3313 14.1426 32.2486 14.1469 31.151V20.551C14.1469 17.7398 15.2637 15.0436 17.2516 13.0558C19.2395 11.0679 21.9356 9.9511 24.7469 9.9511C27.5582 9.9511 30.2543 11.0679 32.2422 13.0558C34.2301 15.0436 35.3468 17.7398 35.3468 20.551V31.151C35.3464 32.2499 35.0831 33.3327 34.5791 34.3092L28.8498 44.8131L41.961 53.3923C42.8265 53.9587 43.5367 54.7324 44.0271 55.6432C44.5175 56.5539 44.7725 57.5727 44.769 58.607V66.4841Z" fill="black"/>
</svg>
