<svg width="71" height="52" viewBox="0 0 71 52" fill="none" xmlns="http://www.w3.org/2000/svg">
<path d="M62.434 42.408C63.3709 42.4069 64.2692 42.0342 64.9317 41.3717C65.5942 40.7092 65.9669 39.8109 65.968 38.874V3.534C65.9669 2.59706 65.5942 1.69881 64.9317 1.03629C64.2692 0.373772 63.3709 0.00109119 62.434 0H8.246C7.30906 0.00109119 6.4108 0.373772 5.74829 1.03629C5.08577 1.69881 4.71309 2.59706 4.712 3.534V38.874C4.71309 39.8109 5.08577 40.7092 5.74829 41.3717C6.4108 42.0342 7.30906 42.4069 8.246 42.408H62.434ZM9.424 4.712H61.256V37.696H9.424V4.712Z" fill="black"/>
<path d="M70.68 47.12H0V51.832H70.68V47.12Z" fill="black"/>
</svg>
