<svg width="50" height="47" viewBox="0 0 50 47" fill="none" xmlns="http://www.w3.org/2000/svg">
<path d="M47.5 6.33333H38.3333V0.5H35V6.33333H15V0.5H11.6667V6.33333H2.5C1.8372 6.33411 1.20176 6.59774 0.733086 7.06642C0.264412 7.53509 0.000771922 8.17053 0 8.83333V43.8333C0.000771922 44.4961 0.264412 45.1316 0.733086 45.6002C1.20176 46.0689 1.8372 46.3326 2.5 46.3333H47.5C48.1628 46.3326 48.7982 46.0689 49.2669 45.6002C49.7356 45.1316 49.9992 44.4961 50 43.8333V8.83333C49.9992 8.17053 49.7356 7.53509 49.2669 7.06642C48.7982 6.59774 48.1628 6.33411 47.5 6.33333ZM46.6667 43H3.33333V9.66667H11.6667V13.8333H15V9.66667H35V13.8333H38.3333V9.66667H46.6667V43Z" fill="black"/>
<path d="M13.3333 19.6667H10V23H13.3333V19.6667Z" fill="black"/>
<path d="M22.5 19.6667H19.1667V23H22.5V19.6667Z" fill="black"/>
<path d="M30.8333 19.6667H27.5V23H30.8333V19.6667Z" fill="black"/>
<path d="M40 19.6667H36.6667V23H40V19.6667Z" fill="black"/>
<path d="M13.3333 27.1667H10V30.5H13.3333V27.1667Z" fill="black"/>
<path d="M22.5 27.1667H19.1667V30.5H22.5V27.1667Z" fill="black"/>
<path d="M30.8333 27.1667H27.5V30.5H30.8333V27.1667Z" fill="black"/>
<path d="M40 27.1667H36.6667V30.5H40V27.1667Z" fill="black"/>
<path d="M13.3333 34.6667H10V38H13.3333V34.6667Z" fill="black"/>
<path d="M22.5 34.6667H19.1667V38H22.5V34.6667Z" fill="black"/>
<path d="M30.8333 34.6667H27.5V38H30.8333V34.6667Z" fill="black"/>
<path d="M40 34.6667H36.6667V38H40V34.6667Z" fill="black"/>
</svg>
